<svg xmlns="http://www.w3.org/2000/svg" viewBox="0 0 576 512">
  <path fill="currentColor" d="M128 0a24 24 0 0 1 24 24v40h144V24a24 24 0 1 1 48 0v40h40a64 64 0 0 1 64 64v64H48v256a16 16 0 0 0 16 16h220.5c12.3 18.8 28 35.1 46.3 48H64a64 64 0 0 1-64-64V128a64 64 0 0 1 64-64h40V24a24 24 0 0 1 24-24zm304 224a144 144 0 1 1 0 288 144 144 0 1 1 0-288zm16 80c0-8.8-7.2-16-16-16s-16 7.2-16 16v48h-48c-8.8 0-16 7.2-16 16s7.2 16 16 16h48v48c0 8.8 7.2 16 16 16s16-7.2 16-16v-48h48c8.8 0 16-7.2 16-16s-7.2-16-16-16h-48v-48z"/>
</svg>
