<svg xmlns="http://www.w3.org/2000/svg" viewBox="0 0 512 512">
  <path fill="currentColor" d="M200.3 81.5a63 63 0 0 1 111.4 0A24 24 0 0 0 340 93.2a63 63 0 0 1 78.8 78.8 23.8 23.8 0 0 0 11.7 28.2 63 63 0 0 1 0 111.4 23.9 23.9 0 0 0-11.7 28.2 63 63 0 0 1-78.8 78.8 23.8 23.8 0 0 0-28.2 11.7 63 63 0 0 1-111.4 0 23.9 23.9 0 0 0-28.2-11.7 63 63 0 0 1-79-78.6c3.4-11-1.5-22.9-11.7-28.2a63.2 63.2 0 0 1 0-111.5A24 24 0 0 0 93.2 172 63 63 0 0 1 172 93.2c11 3.4 22.9-1.5 28.2-11.7zM256 0c-35.9 0-67.8 17-88.1 43.4A111 111 0 0 0 43.3 168a110.9 110.9 0 0 0 .1 176.1A111 111 0 0 0 168 468.7a110.9 110.9 0 0 0 176.1-.1A111 111 0 0 0 468.7 344a110.9 110.9 0 0 0-.1-176.1A111 111 0 0 0 344 43.3 110.7 110.7 0 0 0 256 0zm113 209a24 24 0 0 0-33.9-33.9l-111 111-47-47a24 24 0 0 0-33.9 33.9l64 64a23.9 23.9 0 0 0 33.9 0L369 209z"/>
</svg>
